<svg width="36" height="36" viewBox="0 0 36 36" fill="none" xmlns="http://www.w3.org/2000/svg">
<path d="M17.4962 6.36606C17.6548 5.87798 18.3452 5.87798 18.5038 6.36605L20.9735 13.9668C21.0444 14.1851 21.2478 14.3329 21.4773 14.3329H29.4692C29.9824 14.3329 30.1958 14.9896 29.7806 15.2912L23.315 19.9888C23.1293 20.1237 23.0516 20.3628 23.1226 20.581L25.5922 28.1818C25.7508 28.6699 25.1922 29.0758 24.777 28.7741L18.3114 24.0766C18.1257 23.9417 17.8743 23.9417 17.6886 24.0766L11.223 28.7741C10.8078 29.0758 10.2492 28.6699 10.4078 28.1818L12.8774 20.581C12.9484 20.3628 12.8707 20.1237 12.685 19.9888L6.21939 15.2912C5.80421 14.9896 6.01758 14.3329 6.53078 14.3329H14.5227C14.7522 14.3329 14.9556 14.1851 15.0265 13.9668L17.4962 6.36606Z" fill="#8E8E93"/>
</svg>
